<mxfile host="app.diagrams.net" modified="2023-10-16T01:40:47.266Z" agent="Mozilla/5.0 (Windows NT 10.0; Win64; x64; rv:109.0) Gecko/20100101 Firefox/118.0" etag="Sgsb5cN4NIoL3xE-PxWA" version="22.0.4" type="github">
  <diagram id="C5RBs43oDa-KdzZeNtuy" name="Page-1">
    <mxGraphModel dx="880" dy="470" grid="1" gridSize="10" guides="1" tooltips="1" connect="1" arrows="1" fold="1" page="1" pageScale="1" pageWidth="827" pageHeight="1169" math="0" shadow="0">
      <root>
        <mxCell id="WIyWlLk6GJQsqaUBKTNV-0" />
        <mxCell id="WIyWlLk6GJQsqaUBKTNV-1" parent="WIyWlLk6GJQsqaUBKTNV-0" />
        <mxCell id="iZZ4zcqEpmUJaIbFRQE7-45" style="edgeStyle=orthogonalEdgeStyle;rounded=0;orthogonalLoop=1;jettySize=auto;html=1;exitX=0.5;exitY=1;exitDx=0;exitDy=0;entryX=0.5;entryY=0;entryDx=0;entryDy=0;" edge="1" parent="WIyWlLk6GJQsqaUBKTNV-1" source="iZZ4zcqEpmUJaIbFRQE7-37" target="iZZ4zcqEpmUJaIbFRQE7-38">
          <mxGeometry relative="1" as="geometry" />
        </mxCell>
        <mxCell id="iZZ4zcqEpmUJaIbFRQE7-37" value="Main" style="ellipse;whiteSpace=wrap;html=1;" vertex="1" parent="WIyWlLk6GJQsqaUBKTNV-1">
          <mxGeometry x="400" width="120" height="60" as="geometry" />
        </mxCell>
        <mxCell id="iZZ4zcqEpmUJaIbFRQE7-48" style="edgeStyle=orthogonalEdgeStyle;rounded=0;orthogonalLoop=1;jettySize=auto;html=1;exitX=0.5;exitY=1;exitDx=0;exitDy=0;entryX=0.5;entryY=0;entryDx=0;entryDy=0;" edge="1" parent="WIyWlLk6GJQsqaUBKTNV-1" source="iZZ4zcqEpmUJaIbFRQE7-38" target="iZZ4zcqEpmUJaIbFRQE7-46">
          <mxGeometry relative="1" as="geometry" />
        </mxCell>
        <mxCell id="iZZ4zcqEpmUJaIbFRQE7-38" value="" style="rounded=0;whiteSpace=wrap;html=1;" vertex="1" parent="WIyWlLk6GJQsqaUBKTNV-1">
          <mxGeometry x="400" y="110" width="120" height="70" as="geometry" />
        </mxCell>
        <mxCell id="iZZ4zcqEpmUJaIbFRQE7-41" value="" style="endArrow=none;html=1;rounded=0;exitX=0;exitY=0.25;exitDx=0;exitDy=0;entryX=1;entryY=0.25;entryDx=0;entryDy=0;" edge="1" parent="WIyWlLk6GJQsqaUBKTNV-1" source="iZZ4zcqEpmUJaIbFRQE7-38" target="iZZ4zcqEpmUJaIbFRQE7-38">
          <mxGeometry width="50" height="50" relative="1" as="geometry">
            <mxPoint x="430" y="250" as="sourcePoint" />
            <mxPoint x="530" y="128" as="targetPoint" />
          </mxGeometry>
        </mxCell>
        <mxCell id="iZZ4zcqEpmUJaIbFRQE7-44" value="" style="endArrow=none;html=1;rounded=0;exitX=0.142;exitY=-0.014;exitDx=0;exitDy=0;exitPerimeter=0;entryX=0.15;entryY=1.014;entryDx=0;entryDy=0;entryPerimeter=0;" edge="1" parent="WIyWlLk6GJQsqaUBKTNV-1" source="iZZ4zcqEpmUJaIbFRQE7-38" target="iZZ4zcqEpmUJaIbFRQE7-38">
          <mxGeometry width="50" height="50" relative="1" as="geometry">
            <mxPoint x="430" y="250" as="sourcePoint" />
            <mxPoint x="480" y="200" as="targetPoint" />
          </mxGeometry>
        </mxCell>
        <mxCell id="iZZ4zcqEpmUJaIbFRQE7-50" style="edgeStyle=orthogonalEdgeStyle;rounded=0;orthogonalLoop=1;jettySize=auto;html=1;exitX=0.5;exitY=1;exitDx=0;exitDy=0;" edge="1" parent="WIyWlLk6GJQsqaUBKTNV-1" source="iZZ4zcqEpmUJaIbFRQE7-46" target="iZZ4zcqEpmUJaIbFRQE7-49">
          <mxGeometry relative="1" as="geometry" />
        </mxCell>
        <mxCell id="iZZ4zcqEpmUJaIbFRQE7-46" value="Input bilngan " style="shape=parallelogram;perimeter=parallelogramPerimeter;whiteSpace=wrap;html=1;fixedSize=1;" vertex="1" parent="WIyWlLk6GJQsqaUBKTNV-1">
          <mxGeometry x="385" y="230" width="150" height="40" as="geometry" />
        </mxCell>
        <mxCell id="iZZ4zcqEpmUJaIbFRQE7-53" style="edgeStyle=orthogonalEdgeStyle;rounded=0;orthogonalLoop=1;jettySize=auto;html=1;exitX=0;exitY=0.5;exitDx=0;exitDy=0;" edge="1" parent="WIyWlLk6GJQsqaUBKTNV-1" source="iZZ4zcqEpmUJaIbFRQE7-49">
          <mxGeometry relative="1" as="geometry">
            <mxPoint x="260" y="540" as="targetPoint" />
          </mxGeometry>
        </mxCell>
        <mxCell id="iZZ4zcqEpmUJaIbFRQE7-55" style="edgeStyle=orthogonalEdgeStyle;rounded=0;orthogonalLoop=1;jettySize=auto;html=1;exitX=1;exitY=0.5;exitDx=0;exitDy=0;" edge="1" parent="WIyWlLk6GJQsqaUBKTNV-1" source="iZZ4zcqEpmUJaIbFRQE7-49">
          <mxGeometry relative="1" as="geometry">
            <mxPoint x="670" y="540" as="targetPoint" />
          </mxGeometry>
        </mxCell>
        <mxCell id="iZZ4zcqEpmUJaIbFRQE7-49" value="bilangan mod 2 == 0" style="rhombus;whiteSpace=wrap;html=1;" vertex="1" parent="WIyWlLk6GJQsqaUBKTNV-1">
          <mxGeometry x="370" y="330" width="180" height="110" as="geometry" />
        </mxCell>
        <mxCell id="iZZ4zcqEpmUJaIbFRQE7-63" style="edgeStyle=orthogonalEdgeStyle;rounded=0;orthogonalLoop=1;jettySize=auto;html=1;exitX=0.5;exitY=1;exitDx=0;exitDy=0;entryX=0;entryY=0.5;entryDx=0;entryDy=0;" edge="1" parent="WIyWlLk6GJQsqaUBKTNV-1" source="iZZ4zcqEpmUJaIbFRQE7-56" target="iZZ4zcqEpmUJaIbFRQE7-60">
          <mxGeometry relative="1" as="geometry">
            <mxPoint x="260" y="670" as="targetPoint" />
            <Array as="points">
              <mxPoint x="260" y="640" />
              <mxPoint x="261" y="640" />
              <mxPoint x="261" y="670" />
            </Array>
          </mxGeometry>
        </mxCell>
        <mxCell id="iZZ4zcqEpmUJaIbFRQE7-56" value="&lt;div&gt;Output bilangan &amp;amp; &quot; adalah &lt;br&gt;&lt;/div&gt;&lt;div&gt;bilangan ganjil &lt;br&gt;&lt;/div&gt;" style="shape=parallelogram;perimeter=parallelogramPerimeter;whiteSpace=wrap;html=1;fixedSize=1;" vertex="1" parent="WIyWlLk6GJQsqaUBKTNV-1">
          <mxGeometry x="80" y="540" width="360" height="70" as="geometry" />
        </mxCell>
        <mxCell id="iZZ4zcqEpmUJaIbFRQE7-59" style="edgeStyle=orthogonalEdgeStyle;rounded=0;orthogonalLoop=1;jettySize=auto;html=1;exitX=0.5;exitY=1;exitDx=0;exitDy=0;" edge="1" parent="WIyWlLk6GJQsqaUBKTNV-1" source="iZZ4zcqEpmUJaIbFRQE7-57">
          <mxGeometry relative="1" as="geometry">
            <mxPoint x="470" y="670" as="targetPoint" />
            <Array as="points">
              <mxPoint x="670" y="635" />
              <mxPoint x="671" y="635" />
            </Array>
          </mxGeometry>
        </mxCell>
        <mxCell id="iZZ4zcqEpmUJaIbFRQE7-57" value="&lt;div&gt;Ouput bilangan &amp;amp; &quot; adalah&lt;/div&gt;&lt;div&gt;bilangan genap &lt;br&gt;&lt;/div&gt;" style="shape=parallelogram;perimeter=parallelogramPerimeter;whiteSpace=wrap;html=1;fixedSize=1;" vertex="1" parent="WIyWlLk6GJQsqaUBKTNV-1">
          <mxGeometry x="470" y="540" width="400" height="70" as="geometry" />
        </mxCell>
        <mxCell id="iZZ4zcqEpmUJaIbFRQE7-65" style="edgeStyle=orthogonalEdgeStyle;rounded=0;orthogonalLoop=1;jettySize=auto;html=1;exitX=0.5;exitY=1;exitDx=0;exitDy=0;entryX=0.5;entryY=0;entryDx=0;entryDy=0;" edge="1" parent="WIyWlLk6GJQsqaUBKTNV-1" source="iZZ4zcqEpmUJaIbFRQE7-60" target="iZZ4zcqEpmUJaIbFRQE7-64">
          <mxGeometry relative="1" as="geometry" />
        </mxCell>
        <mxCell id="iZZ4zcqEpmUJaIbFRQE7-60" value="" style="ellipse;whiteSpace=wrap;html=1;aspect=fixed;" vertex="1" parent="WIyWlLk6GJQsqaUBKTNV-1">
          <mxGeometry x="430" y="650" width="40" height="40" as="geometry" />
        </mxCell>
        <mxCell id="iZZ4zcqEpmUJaIbFRQE7-64" value="End " style="ellipse;whiteSpace=wrap;html=1;" vertex="1" parent="WIyWlLk6GJQsqaUBKTNV-1">
          <mxGeometry x="390" y="730" width="120" height="60" as="geometry" />
        </mxCell>
      </root>
    </mxGraphModel>
  </diagram>
</mxfile>
